<svg width="447" height="275" viewBox="0 0 447 275" fill="none" xmlns="http://www.w3.org/2000/svg">
<path d="M80.451 155.006L76.387 155.029C75.694 155.022 75.049 155.06 74.316 155.093L71.919 155.195C71.061 155.22 70.079 155.334 69.064 155.406C68.041 155.489 66.952 155.563 65.815 155.72C61.249 156.226 55.734 157.139 49.671 158.907C43.628 160.665 36.969 163.287 30.731 167.392C27.621 169.437 24.63 171.853 22.039 174.672C19.452 177.485 17.242 180.701 15.898 184.244C12.973 191.264 13.871 199.608 18.548 207.367C20.834 211.245 23.942 214.944 27.569 218.338C31.197 221.739 35.332 224.846 39.741 227.701C44.2317 230.605 48.9039 233.219 53.729 235.526C56.139 236.758 58.666 237.808 61.15 238.94C63.686 239.976 66.204 241.061 68.786 242.019C89.394 249.843 111.278 254.816 131.941 258.331C142.281 260.114 152.365 261.428 161.946 262.538L169.039 263.317C171.37 263.566 173.672 263.757 175.933 263.974C180.454 264.423 184.833 264.752 189.038 265.071C193.24 265.423 197.278 265.637 201.116 265.881C204.953 266.14 208.599 266.3 212.026 266.459C218.877 266.821 224.86 266.956 229.785 267.134C234.711 267.278 238.585 267.319 241.226 267.381L245.275 267.46L245.323 267.461C246.276 267.489 247.181 267.888 247.843 268.575C248.506 269.261 248.873 270.18 248.867 271.133C248.861 272.087 248.481 273.001 247.81 273.678C247.139 274.356 246.229 274.744 245.275 274.759L241.197 274.785C238.537 274.791 234.636 274.85 229.669 274.834C224.702 274.784 218.669 274.804 211.748 274.617C208.287 274.545 204.604 274.48 200.722 274.318C196.84 274.172 192.756 274.061 188.497 273.816C184.237 273.604 179.799 273.385 175.209 273.05C172.914 272.889 170.578 272.756 168.208 272.565L160.995 271.962C151.244 271.088 140.961 270.018 130.36 268.472C109.169 265.42 86.586 260.942 64.655 253.269C61.91 252.33 59.202 251.249 56.483 250.217C53.795 249.079 51.081 248.027 48.437 246.766C43.0869 244.372 37.8951 241.639 32.893 238.584C27.882 235.519 23.055 232.101 18.612 228.152C14.178 224.205 10.117 219.708 6.869 214.536C6.067 213.235 5.267 211.941 4.605 210.541C4.266 209.849 3.894 209.181 3.592 208.469L2.716 206.317C2.575 205.957 2.422 205.603 2.292 205.238L1.942 204.122L1.26 201.892L0.762997 199.602L0.524998 198.458C0.460998 198.073 0.422998 197.682 0.371998 197.295L0.100998 194.971C0.0579979 194.193 0.0459983 193.412 0.0239983 192.635L0 191.47C0.008 191.083 0.0419997 190.696 0.0629997 190.309L0.223999 187.997C0.644999 184.957 1.244 181.949 2.314 179.186C4.298 173.576 7.451 168.797 10.931 164.799C14.426 160.789 18.292 157.53 22.19 154.814C30.014 149.383 37.94 146.078 45.038 143.798C52.157 141.521 58.518 140.308 63.762 139.584C65.072 139.372 66.316 139.251 67.487 139.125C68.666 139.009 69.735 138.86 70.797 138.796L73.719 138.597C74.613 138.537 75.445 138.477 76.077 138.468L80.139 138.339C81.2441 138.301 82.3458 138.483 83.3799 138.875C84.4139 139.266 85.3597 139.86 86.1621 140.621C86.9646 141.382 87.6076 142.294 88.0538 143.306C88.5 144.318 88.7405 145.408 88.7612 146.514C88.7819 147.62 88.5824 148.718 88.1744 149.746C87.7663 150.774 87.1579 151.71 86.3845 152.5C85.6111 153.291 84.6882 153.919 83.6695 154.349C82.6508 154.78 81.5568 155.003 80.451 155.006V155.006Z" fill="#443F14"/>
<path d="M330.47 115.991C326.058 99.136 334.702 80.935 351.809 74.235C368.038 67.879 386.799 74.583 395.323 89.786C404.262 105.729 399.507 125.167 385.579 135.45C382.345 137.838 378.11 138.406 374.324 137.053L337.84 124.014C336.051 123.377 334.445 122.313 333.161 120.915C331.877 119.517 330.953 117.827 330.47 115.991V115.991Z" fill="#E1CD13"/>
<path d="M440.172 165.716C393.46 115.857 297.576 31.471 170.898 13.907L170.923 13.904L166.126 12.206C165.827 12.1054 165.553 11.9428 165.321 11.7288C165.089 11.5148 164.905 11.2542 164.78 10.9642C164.656 10.6741 164.594 10.361 164.599 10.0455C164.604 9.72994 164.676 9.419 164.809 9.13301L165.908 6.67801C166.253 5.90901 165.405 5.13901 164.461 5.36301L133.306 10.127C131.751 10.365 130.581 8.96301 131.383 7.82201L135.819 1.51302C136.359 0.745018 135.53 -0.187993 134.499 0.0330071C124.5 2.17101 89.6275 10.579 69.2425 27.646C44.1645 44.987 27.7305 73.941 27.7305 106.739C27.7305 159.813 70.7555 202.838 123.829 202.838H424.068C443.371 202.838 453.368 179.801 440.172 165.716V165.716Z" fill="#E1CD13"/>
<path d="M398.199 149.015C396.177 148.914 394.198 149.621 392.697 150.979C391.196 152.337 390.296 154.236 390.195 156.257L389.536 169.439C389.458 171.447 390.176 173.405 391.532 174.887C392.889 176.37 394.775 177.258 396.782 177.358C398.789 177.458 400.755 176.763 402.253 175.423C403.75 174.083 404.659 172.207 404.782 170.201L405.441 157.019C405.491 156.018 405.343 155.017 405.007 154.073C404.67 153.129 404.15 152.261 403.478 151.517C402.805 150.774 401.993 150.171 401.087 149.741C400.182 149.312 399.2 149.065 398.199 149.015V149.015Z" fill="#443F14"/>
<path d="M337.439 140.77C320.932 135.197 310.471 117.976 314.27 100.001C317.874 82.9479 333.783 70.9549 351.169 72.1839C369.401 73.4729 383.031 88.1239 383.972 105.411C384.19 109.425 382.339 113.276 379.129 115.696L348.191 139.019C346.677 140.164 344.906 140.921 343.032 141.227C341.158 141.532 339.238 141.375 337.439 140.77V140.77ZM223.477 165.623H185C189.858 155.263 192.37 143.959 192.359 132.517C192.359 89.3739 157.385 54.3999 114.242 54.3999C71.099 54.3999 36.125 89.3739 36.125 132.517C36.125 175.66 71.099 210.634 114.242 210.634H223.476C235.905 210.634 245.981 200.558 245.981 188.129C245.982 175.699 235.906 165.623 223.477 165.623Z" fill="#D1C12B"/>
<path d="M348.928 138.554C336.025 136.743 327.032 124.815 328.843 111.912C330.654 99.0091 342.582 90.0161 355.485 91.8271C368.388 93.6381 377.381 105.566 375.57 118.469L348.928 138.554Z" fill="#443F14"/>
</svg>
