<?xml version="1.0" encoding="utf-8"?>
<!-- Generator: Adobe Illustrator 25.3.0, SVG Export Plug-In . SVG Version: 6.00 Build 0)  -->
<svg version="1.1" xmlns="http://www.w3.org/2000/svg" xmlns:xlink="http://www.w3.org/1999/xlink" x="0px" y="0px"
	 viewBox="0 0 200 200" style="enable-background:new 0 0 200 200;" xml:space="preserve">
<style type="text/css">
	.st0{fill:#40C0F0;stroke:#35398E;stroke-width:3;stroke-miterlimit:10;}
	.st1{fill:none;stroke:#35398E;stroke-width:3;stroke-miterlimit:10;}
</style>
<g id="Capa_2">
	<g id="Capa_2_1_">
		<circle class="st0" cx="100.5" cy="100" r="87.5"/>
	</g>
</g>
<g id="Capa_1">
	<g>
		<g>
			<circle class="st1" cx="100" cy="100" r="75"/>
			<path class="st1" d="M124,68"/>
			<path class="st1" d="M111.7,49.9l9-6.4l26.8,16.9c0,0,14.3,14.6-13.9,52.6l-12.1-2.5"/>
			<path class="st1" d="M99.8,47c0,0,21.3-3.4,26.3,24.5c0,0.1,0,0.1,0,0.2c0.1,1.2,1.5,15.3-4.6,27.3c-1.3,2.7-1.6,7.2-0.6,10
				c2.7,8,7.3,13.1,13.3,19.9c2.2,2.5-0.7,6.1-3.6,4.5c-6.9-3.9-20-20.4-18.9-28.4"/>
			<path class="st1" d="M115.4,74.6c0,0-3.5-1.2-5.3,2.6C110.1,77.3,114.7,79.7,115.4,74.6z"/>
			<path class="st1" d="M121.5,58.3c0,0,4.9-8.5,20.1,6.4"/>
			<g>
				<line class="st1" x1="112.8" y1="111.2" x2="120.9" y2="109"/>
			</g>
		</g>
	</g>
	<g>
		<g>
			<circle class="st1" cx="100" cy="100" r="75"/>
			<path class="st1" d="M76,68"/>
			<path class="st1" d="M88.3,49.9l-9-6.4L52.5,60.5c0,0-14.3,14.6,13.9,52.6l12.1-2.5"/>
			<path class="st1" d="M100.2,47c0,0-21.3-3.4-26.3,24.5c0,0.1,0,0.1,0,0.2c-0.1,1.2-1.5,15.3,4.6,27.3c1.3,2.7,1.6,7.2,0.6,10
				c-2.7,8-7.3,13.1-13.3,19.9c-2.2,2.5,0.7,6.1,3.6,4.5c6.9-3.9,20-20.4,18.9-28.4"/>
			<path class="st1" d="M84.6,74.6c0,0,3.5-1.2,5.3,2.6C89.9,77.3,85.3,79.7,84.6,74.6z"/>
			<path class="st1" d="M78.5,58.3c0,0-4.9-8.5-20.1,6.4"/>
			<g>
				<line class="st1" x1="87.2" y1="111.2" x2="79.1" y2="109"/>
			</g>
		</g>
	</g>
</g>
<g id="Capa_3">
	<path class="st1" d="M88.4,106.2c0,0-0.8,21.6,11.6,33c2.3,2.1,5,3.3,9.3,4.4c2.3,0.6,7.6,0.7,9.6,1.2c1.2,0.3,1.6,2.3,0.3,2.6
		c-3,0.8-2.9,2.6-1.8,7c0.7,2.9,4.6,2.1,7.5,1.5c3.5-0.7,9.5-1.4,9.5-4.7c0-3.3,0.2-6.7-4.6-6.5c0,0-1.4-6.4-8.5-7.8
		c-16.2-3.1-14.1-11.3-9.8-30.8"/>
</g>
</svg>
