<?xml version="1.0" encoding="utf-8"?>
<!-- Generator: Adobe Illustrator 25.3.0, SVG Export Plug-In . SVG Version: 6.00 Build 0)  -->
<svg version="1.1" xmlns="http://www.w3.org/2000/svg" xmlns:xlink="http://www.w3.org/1999/xlink" x="0px" y="0px"
	 viewBox="0 0 200 200" style="enable-background:new 0 0 200 200;" xml:space="preserve">
<style type="text/css">
	.st0{fill:#3EC0F0;stroke:#35398E;stroke-width:3;stroke-miterlimit:10;}
	.st1{fill:none;stroke:#35398E;stroke-miterlimit:10;}
	.st2{fill:none;stroke:#35398E;stroke-width:3;stroke-miterlimit:10;}
</style>
<g id="Capa_2">
	<g id="Capa_2_1_">
		<path class="st0" d="M100,12.5c-48.3,0-87.5,39.2-87.5,87.5s39.2,87.5,87.5,87.5s87.5-39.2,87.5-87.5S148.3,12.5,100,12.5z"/>
	</g>
</g>
<g id="Capa_1">
	<g>
		<g>
			<rect class="st1" width="200" height="200"/>
			<circle class="st2" cx="100" cy="100" r="75"/>
			<g>
				<path class="st2" d="M99.7,145.8c0,0,8.9,0,13.7-5.7l-13.5-7.3v-4.5l7.5-4.5l-2.3-3.9l-5.4,1.2"/>
			</g>
			<path class="st2" d="M120.5,94.5c0,0-8.5-1.3-10,2.2c-0.4,0.9-0.7,1.7-0.9,2.5c-0.8,2.4-1,4.4-1,4.4"/>
			<path class="st2" d="M118.3,97.5c0,0-1.9,5.2-8.7,1.7"/>
			<path class="st2" d="M117,123l1.3-7.3c3.7-8.7,14.4-17.4,14.4-17.4c0.9-19.4-18.1-22.4-18.1-22.4L99.1,86.1"/>
			<path class="st2" d="M139.5,67.9l4.7-4.3c0,0-3-19.3-28-8.9l-16.9-8"/>
			<path class="st2" d="M139.5,68.8c16,1,16,22.8,16,22.8c-12.7-4.2-8,12.1-8,12.1c19.4,9.9,3.7,26.6,3.7,26.6
				c-4.1-8.5-12.7-2.4-12.7-2.4c13.8,18.9-10.1,28.6-10.1,28.6c0.8-4.6-7.3-7.2-7.3-7.2l-0.8,5.6c-1.3,1.4-4.5-1-7.8-0.7
				c-6.7,0.7-12.1,5.5-13.6,6.9"/>
			<path class="st2" d="M108.6,143.7c4.8-4.8-8.7-10.9-8.7-10.9"/>
			<path class="st2" d="M139.5,67.8c-0.2-18.8-13.6-1.8-13.6-1.8s-0.5,6.4,1.6,6.2c8-1,11.6,2.6,11.6,2.6
				C139.4,72.5,139.5,69.6,139.5,67.8"/>
			<path class="st2" d="M113.4,140.1c0,0,8.8-2.5,3.9-12.3"/>
		</g>
	</g>
	<g>
		<g>
			<rect class="st1" width="200" height="200"/>
			<circle class="st2" cx="100" cy="100" r="75"/>
			<g>
				<path class="st2" d="M100.3,145.8c0,0-8.9,0-13.7-5.7l13.5-7.3v-4.5l-7.5-4.5l2.3-3.9l5.4,1.2"/>
			</g>
			<path class="st2" d="M79.5,94.5c0,0,8.5-1.3,10,2.2c0.4,0.9,0.7,1.7,0.9,2.5c0.8,2.4,1,4.4,1,4.4"/>
			<path class="st2" d="M81.7,97.5c0,0,1.9,5.2,8.7,1.7"/>
			<path class="st2" d="M83,123l-1.3-7.3C78,107,67.3,98.3,67.3,98.3c-0.9-19.4,18.1-22.4,18.1-22.4l15.4,10.3"/>
			<path class="st2" d="M60.5,67.9l-4.7-4.3c0,0,3-19.3,28-8.9l16.9-8"/>
			<path class="st2" d="M60.5,68.8c-16,1-16,22.8-16,22.8c12.7-4.2,8,12.1,8,12.1c-19.4,9.9-3.7,26.6-3.7,26.6
				c4.1-8.5,12.7-2.4,12.7-2.4c-13.8,18.9,10.1,28.6,10.1,28.6c-0.8-4.6,7.3-7.2,7.3-7.2l0.8,5.6c1.3,1.4,4.5-1,7.8-0.7
				c6.7,0.7,12.1,5.5,13.6,6.9"/>
			<path class="st2" d="M91.4,143.7c-4.8-4.8,8.7-10.9,8.7-10.9"/>
			<path class="st2" d="M60.5,67.8C60.7,49.1,74.1,66,74.1,66s0.5,6.4-1.6,6.2c-8-1-11.6,2.6-11.6,2.6
				C60.6,72.5,60.5,69.6,60.5,67.8"/>
			<path class="st2" d="M86.6,140.1c0,0-8.8-2.5-3.9-12.3"/>
		</g>
	</g>
</g>
</svg>
