<?xml version="1.0" encoding="utf-8"?>
<!-- Generator: Adobe Illustrator 25.3.0, SVG Export Plug-In . SVG Version: 6.00 Build 0)  -->
<svg version="1.1" xmlns="http://www.w3.org/2000/svg" xmlns:xlink="http://www.w3.org/1999/xlink" x="0px" y="0px"
	 viewBox="0 0 200 200" style="enable-background:new 0 0 200 200;" xml:space="preserve">
<style type="text/css">
	.st0{fill:#E94B4F;stroke:#991914;stroke-width:3;stroke-miterlimit:10;}
	.st1{fill:none;stroke:#991914;stroke-width:3;stroke-miterlimit:10;}
</style>
<g id="Capa_2">
	<circle class="st0" cx="100" cy="100" r="87.5"/>
</g>
<g id="Capa_1">
	<g>
		<g>
			<line class="st1" x1="100" y1="120.84" x2="100" y2="110.84"/>
			<line class="st1" x1="100" y1="120.84" x2="92.93" y2="127.91"/>
			<line class="st1" x1="100" y1="120.84" x2="107.07" y2="127.91"/>
			<path class="st1" d="M107.65,94.61"/>
			<path class="st1" d="M99.62,116.96l-3.71-3.71c-0.34-0.34-0.1-0.91,0.38-0.91h7.42c0.48,0,0.72,0.58,0.38,0.91l-3.71,3.71
				C100.17,117.17,99.83,117.17,99.62,116.96z"/>
			<path class="st1" d="M71,98.47c0,0,15.46-11.04,20.27,6.89C91.27,105.36,75.29,121.47,71,98.47z"/>
			<path class="st1" d="M100,143.37c0,0,36.41,3.29,53.12-25.41c0,0-3.58-19.29-16.99-33.37c-8.05-8.45-19.64-15.02-36.13-14.4"/>
			<path class="st1" d="M139.17,88.09c0,0,14.65-36.24-1.82-31.07c-15.21,4.78-23.12,14.59-23.12,14.59"/>
			<path class="st1" d="M121.73,74.22c16.8-12.03,16.57-7.09,16.57-7.09l0,3.04"/>
			<path class="st1" d="M112.41,122.43c0,0,9.47-1.88,14.15,4.24"/>
			<path class="st1" d="M112.41,115.84c16-1.18,18.82,5,18.82,5"/>
			<circle class="st1" cx="100" cy="100" r="75"/>
		</g>
	</g>
	<g>
		<g>
			<line class="st1" x1="100" y1="120.84" x2="100" y2="110.84"/>
			<line class="st1" x1="100" y1="120.84" x2="107.07" y2="127.91"/>
			<line class="st1" x1="100" y1="120.84" x2="92.93" y2="127.91"/>
			<path class="st1" d="M92.35,94.61"/>
			<path class="st1" d="M100.38,116.96l3.71-3.71c0.34-0.34,0.1-0.91-0.38-0.91h-7.42c-0.48,0-0.72,0.58-0.38,0.91l3.71,3.71
				C99.83,117.17,100.17,117.17,100.38,116.96z"/>
			<path class="st1" d="M129,98.47c0,0-15.46-11.04-20.27,6.89C108.73,105.36,124.71,121.47,129,98.47z"/>
			<path class="st1" d="M100,143.37c0,0-36.41,3.29-53.12-25.41c0,0,3.58-19.29,16.99-33.37c8.05-8.45,19.64-15.02,36.13-14.4"/>
			<path class="st1" d="M60.83,88.09c0,0-14.65-36.24,1.82-31.07C77.85,61.8,85.77,71.6,85.77,71.6"/>
			<path class="st1" d="M78.27,74.22c-16.8-12.03-16.57-7.09-16.57-7.09l0,3.04"/>
			<path class="st1" d="M87.59,122.43c0,0-9.47-1.88-14.15,4.24"/>
			<path class="st1" d="M87.59,115.84c-16-1.18-18.82,5-18.82,5"/>
			<circle class="st1" cx="100" cy="100" r="75"/>
		</g>
	</g>
</g>
</svg>
