<?xml version="1.0" encoding="utf-8"?>
<!-- Generator: Adobe Illustrator 25.3.0, SVG Export Plug-In . SVG Version: 6.00 Build 0)  -->
<svg version="1.1" xmlns="http://www.w3.org/2000/svg" xmlns:xlink="http://www.w3.org/1999/xlink" x="0px" y="0px"
	 viewBox="0 0 200 200" style="enable-background:new 0 0 200 200;" xml:space="preserve">
<style type="text/css">
	.st0{fill:#E94B4F;stroke:#991914;stroke-width:3;stroke-miterlimit:10;}
	.st1{fill:none;stroke:#991914;stroke-width:3;stroke-miterlimit:10;}
	.st2{fill:none;stroke:#991914;stroke-miterlimit:10;}
</style>
<g id="Capa_2">
	<path class="st0" d="M100,12.5c-48.32,0-87.5,39.18-87.5,87.5s39.18,87.5,87.5,87.5s87.5-39.18,87.5-87.5S148.32,12.5,100,12.5z"/>
</g>
<g id="Capa_1">
	<g>
		<g>
			<path class="st1" d="M100,25c41.42,0,75,33.58,75,75c0,41.42-33.58,75-75,75s-75-33.58-75-75C25,58.58,58.58,25,100,25z"/>
			<path class="st1" d="M100,54.24c0,0,29.59-0.12,48.85,31.42c2.21,3.63,3.18,7.88,2.88,12.12c-0.48,6.88-2.41,13.87-6.85,21.64
				c0,0-12.71,19.29-11.06-25.65"/>
			<path class="st1" d="M109.9,134.34c3.4-1.66,7.03-4.85,9.81-10.81c0,0,13.79-5.21,14-18.89c0-0.27,0-0.54-0.01-0.82"/>
			<path class="st1" d="M120.88,88.88c0,0-4.94-9.82-9.65,0C111.24,88.88,116.06,90.24,120.88,88.88z"/>
			<path class="st1" d="M100,96.35c14.29,0,14.76,6,14.53,7.47c-0.24,1.47-3.65,5.71-14.53,10.18"/>
			<path class="st1" d="M100,115.18c0.05,0.04,0.1,0.09,0.15,0.13"/>
			<path class="st1" d="M124.88,108.59c-1.17,9.06-17.75,12.6-24.59,6.84"/>
			<path class="st1" d="M102.98,133.86"/>
			<path class="st1" d="M99.56,145.76c4.85-0.49,10.8,0.32,10.34-11.42c-0.14-3.74-0.93-8.75-2.62-15.48"/>
			<path class="st1" d="M116.85,116.57c-3.26,8.49-7.3,13.54-7.3,13.54"/>
			<path class="st2" d="M99.73,115.33c0.11,0.1,0.31,0.07,0.42-0.02c0.04,0.04,0.09,0.08,0.14,0.12c0.04-0.29,0.08-0.58,0-0.86
				c-0.09-0.32-0.36-0.62-0.7-0.62c0.09,0.22,0.03,0.47-0.01,0.71C99.55,114.89,99.55,115.17,99.73,115.33z"/>
			<path class="st2" d="M100.15,115.31c0.06-0.04,0.1-0.12,0.07-0.2"/>
			<path class="st2" d="M100.26,115.57c0.01-0.05,0.02-0.09,0.03-0.14"/>
		</g>
	</g>
	<g>
		<g>
			<path class="st1" d="M100,25c-41.42,0-75,33.58-75,75c0,41.42,33.58,75,75,75s75-33.58,75-75C175,58.58,141.42,25,100,25z"/>
			<path class="st1" d="M100,54.24c0,0-29.59-0.12-48.85,31.42c-2.21,3.63-3.18,7.88-2.88,12.12c0.48,6.88,2.41,13.87,6.85,21.64
				c0,0,12.71,19.29,11.06-25.65"/>
			<path class="st1" d="M90.1,134.34c-3.4-1.66-7.03-4.85-9.81-10.81c0,0-13.79-5.21-14-18.89c0-0.27,0-0.54,0.01-0.82"/>
			<path class="st1" d="M79.12,88.88c0,0,4.94-9.82,9.65,0C88.76,88.88,83.94,90.24,79.12,88.88z"/>
			<path class="st1" d="M100,96.35c-14.29,0-14.76,6-14.53,7.47c0.24,1.47,3.65,5.71,14.53,10.18"/>
			<path class="st1" d="M100,115.18c-0.05,0.04-0.1,0.09-0.15,0.13"/>
			<path class="st1" d="M75.12,108.59c1.17,9.06,17.75,12.6,24.59,6.84"/>
			<path class="st1" d="M97.02,133.86"/>
			<path class="st1" d="M100.44,145.76c-4.85-0.49-10.8,0.32-10.34-11.42c0.14-3.74,0.93-8.75,2.62-15.48"/>
			<path class="st1" d="M83.15,116.57c3.26,8.49,7.3,13.54,7.3,13.54"/>
			<path class="st2" d="M100.27,115.33c-0.11,0.1-0.31,0.07-0.42-0.02c-0.04,0.04-0.09,0.08-0.14,0.12c-0.04-0.29-0.08-0.58,0-0.86
				c0.09-0.32,0.36-0.62,0.7-0.62c-0.09,0.22-0.03,0.47,0.01,0.71C100.45,114.89,100.45,115.17,100.27,115.33z"/>
			<path class="st2" d="M99.85,115.31c-0.06-0.04-0.1-0.12-0.07-0.2"/>
			<path class="st2" d="M99.74,115.57c-0.01-0.05-0.02-0.09-0.03-0.14"/>
		</g>
	</g>
</g>
</svg>
