<?xml version="1.0" encoding="utf-8"?>
<!-- Generator: Adobe Illustrator 25.3.0, SVG Export Plug-In . SVG Version: 6.00 Build 0)  -->
<svg version="1.1" xmlns="http://www.w3.org/2000/svg" xmlns:xlink="http://www.w3.org/1999/xlink" x="0px" y="0px"
	 viewBox="0 0 200 200" style="enable-background:new 0 0 200 200;" xml:space="preserve">
<style type="text/css">
	.st0{fill:#E94B4F;stroke:#991914;stroke-width:3;stroke-miterlimit:10;}
	.st1{fill:none;stroke:#991914;stroke-width:3;stroke-miterlimit:10;}
	.st2{fill:#991914;stroke:#991914;stroke-width:3;stroke-miterlimit:10;}
</style>
<g id="Capa_2">
	<path class="st0" d="M100,12.5c-48.32,0-87.5,39.18-87.5,87.5s39.18,87.5,87.5,87.5s87.5-39.18,87.5-87.5S148.32,12.5,100,12.5z"/>
</g>
<g id="Capa_1">
	<g>
		<g>
			<path class="st1" d="M100,25c41.42,0,75,33.58,75,75c0,41.42-33.58,75-75,75s-75-33.58-75-75C25,58.58,58.58,25,100,25z"/>
			<path class="st1" d="M141.03,98.21c0.7-0.76-1.97-0.19-2.84-0.3c-12.45-1.52-9.3-4-22.74,0.3
				C115.46,98.21,125.8,114.88,141.03,98.21z"/>
			<path class="st1" d="M114.55,97.85c0,0-4.26,15.88,0.91,23.06c5.17,7.18,5.17,7.18,1.44,16.09l-16.59-3.74v-5.46
				c0,0,8.84-2.87,9.12-6.9c0.29-4.02-10.78-3.48-10.78-3.48"/>
			<path class="st1" d="M99.65,65.45c0,0,33.16-1.69,48.21,22.79c4.08,6.64,7.75,20.24,2.11,28c-9.44,12.98-8.28,15.66-24.49,17.96
				c-2.37,0.34-4.95,0.62-7.77,0.84"/>
			<path class="st1" d="M98.65,154.53c0,0,16.81,1.87,14.51-15.52"/>
			<path class="st1" d="M145.73,85.13"/>
			<path class="st1" d="M119.54,70.15"/>
			<path class="st1" d="M154.11,45.41"/>
			<path class="st1" d="M111.15,69.32"/>
			<path class="st1" d="M152.15,99.43c0,0,19.35-22.49,1.96-36.85s-28.97,8.84-28.97,8.84"/>
			<path class="st1" d="M131.78,73.9c0,0,9.96-12.82,19.93-2.06"/>
			<path class="st1" d="M117.46,123.74"/>
			<path class="st1" d="M120.89,103.56"/>
			<path class="st1" d="M135.14,145.19"/>
			<path class="st1" d="M117.06,133.93c0,0,15.12,0.93,15.15,10.27"/>
			<path class="st1" d="M119.33,125.87c0,0,24.16,1.45,23.66,18.33"/>
			<path class="st1" d="M117.06,88.01c-4.91,1.58-6.35,0.43-6.92-11.21"/>
			<path class="st2" d="M140.29,89.59c0,0-5.09-2.73-6.48,0C132.41,92.32,140.83,92.89,140.29,89.59z"/>
			<path class="st1" d="M147.94,102.77c0,0-0.93-3-3.06-1.76C144.65,101.54,147.94,104.54,147.94,102.77z"/>
			<path class="st1" d="M122.99,87.42c-0.72,2.23-0.51,3.65,0.52,2.67c0.43-0.41,1.63-2.07,1.63-2.67s-0.48-1.07-1.07-1.07
				S123.17,86.86,122.99,87.42z"/>
			<path class="st1" d="M119.54,73.68c0,0.12,1.95,1.03,2.93,1.03s0.61-0.91,0.61-1.03s-0.79-0.22-1.77-0.22
				S119.54,73.56,119.54,73.68z"/>
			<path class="st1" d="M145.27,94.11c0,0.1,0.86,0.35,0.96,0.35s0.18-0.08,0.18-0.18s-0.08-0.18-0.18-0.18
				S145.27,94.02,145.27,94.11z"/>
			<path class="st2" d="M124.83,79.17c1.33-2.29,2.05-1.75,4.65-1.12c2.52,0.62,5.82,2.67,5.82,4.03c0,1.36-2.62,0.27-5.2,0
				C127.04,81.76,123.81,80.92,124.83,79.17z"/>
			<circle class="st1" cx="117.26" cy="80.33" r="0.2"/>
			<g>
				<g>
					<path class="st1" d="M113.38,71.63c0,0.12-0.64,0.21-1.4,0.21s-1.4-0.09-1.4-0.21c0-0.12,0.64-0.22,1.4-0.22
						S113.38,71.51,113.38,71.63z"/>
				</g>
			</g>
		</g>
	</g>
	<g>
		<g>
			<path class="st1" d="M100,25c-41.42,0-75,33.58-75,75c0,41.42,33.58,75,75,75s75-33.58,75-75C175,58.58,141.42,25,100,25z"/>
			<path class="st1" d="M58.97,98.21c-0.7-0.76,1.97-0.19,2.84-0.3c12.45-1.52,9.3-4,22.74,0.3C84.54,98.21,74.2,114.88,58.97,98.21
				z"/>
			<path class="st1" d="M85.45,97.85c0,0,4.26,15.88-0.91,23.06c-5.17,7.18-5.17,7.18-1.44,16.09l16.59-3.74v-5.46
				c0,0-8.84-2.87-9.12-6.9c-0.29-4.02,10.78-3.48,10.78-3.48"/>
			<path class="st1" d="M100.35,65.45c0,0-33.16-1.69-48.21,22.79c-4.08,6.64-7.75,20.24-2.11,28c9.44,12.98,8.28,15.66,24.49,17.96
				c2.37,0.34,4.95,0.62,7.77,0.84"/>
			<path class="st1" d="M101.35,154.53c0,0-16.81,1.87-14.51-15.52"/>
			<path class="st1" d="M54.27,85.13"/>
			<path class="st1" d="M80.46,70.15"/>
			<path class="st1" d="M45.89,45.41"/>
			<path class="st1" d="M88.85,69.32"/>
			<path class="st1" d="M47.85,99.43c0,0-19.35-22.49-1.96-36.85s28.97,8.84,28.97,8.84"/>
			<path class="st1" d="M68.22,73.9c0,0-9.96-12.82-19.93-2.06"/>
			<path class="st1" d="M82.54,123.74"/>
			<path class="st1" d="M79.11,103.56"/>
			<path class="st1" d="M64.86,145.19"/>
			<path class="st1" d="M82.94,133.93c0,0-15.12,0.93-15.15,10.27"/>
			<path class="st1" d="M80.67,125.87c0,0-24.16,1.45-23.66,18.33"/>
			<path class="st1" d="M82.94,88.01c4.91,1.58,6.35,0.43,6.92-11.21"/>
			<path class="st2" d="M59.71,89.59c0,0,5.09-2.73,6.48,0C67.59,92.32,59.17,92.89,59.71,89.59z"/>
			<path class="st1" d="M52.06,102.77c0,0,0.93-3,3.06-1.76C55.35,101.54,52.06,104.54,52.06,102.77z"/>
			<path class="st1" d="M77.01,87.42c0.72,2.23,0.51,3.65-0.52,2.67c-0.43-0.41-1.63-2.07-1.63-2.67s0.48-1.07,1.07-1.07
				S76.83,86.86,77.01,87.42z"/>
			<path class="st1" d="M80.46,73.68c0,0.12-1.95,1.03-2.93,1.03s-0.61-0.91-0.61-1.03s0.79-0.22,1.77-0.22S80.46,73.56,80.46,73.68
				z"/>
			<path class="st1" d="M54.73,94.11c0,0.1-0.86,0.35-0.96,0.35c-0.1,0-0.18-0.08-0.18-0.18s0.08-0.18,0.18-0.18
				C53.87,94.11,54.73,94.02,54.73,94.11z"/>
			<path class="st2" d="M75.17,79.17c-1.33-2.29-2.05-1.75-4.65-1.12c-2.52,0.62-5.82,2.67-5.82,4.03c0,1.36,2.62,0.27,5.2,0
				C72.96,81.76,76.19,80.92,75.17,79.17z"/>
			<circle class="st1" cx="82.74" cy="80.33" r="0.2"/>
			<g>
				<g>
					<path class="st1" d="M86.62,71.63c0,0.12,0.64,0.21,1.4,0.21s1.4-0.09,1.4-0.21c0-0.12-0.64-0.22-1.4-0.22
						S86.62,71.51,86.62,71.63z"/>
				</g>
			</g>
		</g>
	</g>
</g>
</svg>
