<?xml version="1.0" encoding="utf-8"?>
<!-- Generator: Adobe Illustrator 25.3.0, SVG Export Plug-In . SVG Version: 6.00 Build 0)  -->
<svg version="1.1" id="Capa_1" xmlns="http://www.w3.org/2000/svg" xmlns:xlink="http://www.w3.org/1999/xlink" x="0px" y="0px"
	 viewBox="0 0 200 200" style="enable-background:new 0 0 200 200;" xml:space="preserve">
<style type="text/css">
	.st0{fill:#E94B4F;stroke:#991914;stroke-width:3;stroke-miterlimit:10;}
	.st1{fill:none;stroke:#931005;stroke-width:3;stroke-miterlimit:10;}
</style>
<circle class="st0" cx="100" cy="100" r="87.5"/>
<path class="st1" d="M129.52,51.11c-13.59,0-24.6,10.34-24.6,23.09c0,0.13,0,0.27,0.01,0.4c3.54,0.58,6.82,1.8,9.83,3.51v-0.15
	c0-12.76,11.01-23.09,24.6-23.09c1.41,0,2.79,0.11,4.13,0.33C139.53,52.62,134.71,51.11,129.52,51.11z M70.48,51.11
	c-5.19,0-10.01,1.51-13.98,4.09c1.35-0.22,2.73-0.33,4.13-0.33c3.83,0,7.46,0.82,10.7,2.29c0,0,0.05,0.02,0.15,0.06
	c0.03,0.02,0.07,0.04,0.12,0.06c0.26,0.12,0.5,0.24,0.75,0.37c0,0,0,0,0.01,0c0.17,0.08,0.34,0.18,0.54,0.29
	c0.09,0.05,0.2,0.1,0.3,0.17c0.23,0.13,0.46,0.27,0.72,0.42c3.91,2.43,10.9,8.31,11.33,19.43v0.15c3.01-1.71,6.29-2.93,9.83-3.51
	c0.01-0.13,0.01-0.27,0.01-0.4C95.08,61.45,84.07,51.11,70.48,51.11z"/>
<path class="st1" d="M100,25c-41.42,0-75,33.58-75,75c0,41.42,33.58,75,75,75s75-33.58,75-75C175,58.58,141.42,25,100,25z
	 M139.39,98.18c-2.12,0.86-4.38,1.43-6.74,1.68c3.32,6.49,5.75,13.52,7.35,20.14c5.2,21.47-17.91,35-40,35s-45.2-13.53-40-35
	c1.6-6.62,4.03-13.65,7.35-20.14c-2.36-0.25-4.62-0.82-6.74-1.68C51.46,94.47,45,85.49,45,75c0-8.53,4.27-16.07,10.8-20.57
	C59.83,51.63,64.73,50,70,50c13.81,0,25,11.19,25,25c0,0.14,0,0.29-0.01,0.43C96.61,75.15,98.28,75,100,75s3.39,0.15,5.01,0.43
	C105,75.29,105,75.14,105,75c0-13.81,11.19-25,25-25c5.27,0,10.17,1.63,14.2,4.43C150.73,58.93,155,66.47,155,75
	C155,85.49,148.54,94.47,139.39,98.18z"/>
<path class="st1" d="M100.01,128.82c-0.01-0.07-0.01-0.14-0.01-0.21c0,0.07,0,0.14-0.01,0.21c-0.09,2.9-2.1,5.4-4.99,6.57v6.22h10
	v-6.22C102.11,134.22,100.1,131.72,100.01,128.82z"/>
<path class="st1" d="M140,120c-1.6-6.62-4.03-13.65-7.35-20.14c-4.21-8.29-9.85-15.7-17-20.23c-0.21-0.05-0.65-0.31-0.65-0.4
	c-3.06-1.85-6.39-3.17-9.99-3.8C103.39,75.15,101.72,75,100,75s-3.39,0.15-5.01,0.43c-3.6,0.63-6.93,1.95-9.99,3.8
	c0,0.09-0.44,0.35-0.65,0.4c-7.15,4.53-12.79,11.94-17,20.23C64.03,106.35,61.6,113.38,60,120c-5.2,21.47,17.91,35,40,35
	S145.2,141.47,140,120z M90,115c-2.76,0-5-4.48-5-10c0-5.52,2.24-10,5-10s5,4.48,5,10C95,110.52,92.76,115,90,115z M105,141.61H95
	v-6.22c2.89-1.17,4.9-3.67,4.99-6.57c0.01-0.07,0.01-0.14,0.01-0.21c0,0.07,0,0.14,0.01,0.21c0.09,2.9,2.1,5.4,4.99,6.57V141.61z
	 M100,127c-2.76,0-5-5.44-5-6.82s2.24-2.5,5-2.5s5,1.12,5,2.5S102.76,127,100,127z M110,115c-2.76,0-5-4.48-5-10
	c0-5.52,2.24-10,5-10s5,4.48,5,10C115,110.52,112.76,115,110,115z"/>
<path class="st1" d="M82.5,127.75c0,4.69,3.92,8.5,8.75,8.5c1.34,0,2.61-0.29,3.75-0.82"/>
<path class="st1" d="M105,135.43c1.14,0.53,2.41,0.82,3.75,0.82c4.83,0,8.75-3.81,8.75-8.5"/>
<path class="st1" d="M105,135.39v6.22H95v-6.22c2.89-1.17,4.9-3.67,4.99-6.57h0.02C100.1,131.72,102.11,134.22,105,135.39z"/>
</svg>
