<?xml version="1.0" encoding="utf-8"?>
<!-- Generator: Adobe Illustrator 25.3.0, SVG Export Plug-In . SVG Version: 6.00 Build 0)  -->
<svg version="1.1" xmlns="http://www.w3.org/2000/svg" xmlns:xlink="http://www.w3.org/1999/xlink" x="0px" y="0px"
	 viewBox="0 0 200 200" style="enable-background:new 0 0 200 200;" xml:space="preserve">
<style type="text/css">
	.st0{fill:#E94B4F;stroke:#991914;stroke-width:3;stroke-miterlimit:10;}
	.st1{display:none;}
	.st2{display:inline;}
	.st3{fill:none;stroke:#1D1D1B;stroke-miterlimit:10;}
	.st4{fill:none;stroke:#991914;stroke-width:3;stroke-miterlimit:10;}
</style>
<g id="Capa_2">
	<circle class="st0" cx="100.5" cy="100" r="87.5"/>
</g>
<g id="Capa_1">
	<g>
		<g>
			<g class="st1">
				<g class="st2">
					<rect class="st3" width="200" height="200"/>
				</g>
				<g class="st2">
					<rect class="st3" width="200" height="200"/>
				</g>
			</g>
			<circle class="st4" cx="100" cy="100" r="75"/>
			<path class="st4" d="M114.6,88.7"/>
			<path class="st4" d="M114.6,120"/>
			<path class="st4" d="M100,114.7l13.1,1.1c0.2,0,0.2,0.3,0,0.4c-8.8,2-13.1,9.4-13.1,9.4c0,11.5,9.2,14.8,20.9,14.1
				c11.6-0.7,15.9-5.2,18.2-11.9s0.4-11.1-4.1-17.1"/>
			<path class="st4" d="M100,156c0,0,26.2,1.2,20.9-16.2"/>
			<path class="st4" d="M113.1,117L112.2,96c-0.4-9.7,10.5-16.2,18.5-10.7c0.3,0.2,0.5,0.4,0.7,0.5c0,0-4.9,12.1-11.8,8.6"/>
			<path class="st4" d="M129.4,138.1c0,0,10.7,1.2,13.4,6.7l2.1-9.5c0,0,6.5,0.4,6.9,6.7c0,0,13.1-7.6,2.8-25.1h5.1
				c0,0,12.5-21-18.7-48.9c0,0-15.1-18.1-42.2-17.8"/>
			<path class="st4" d="M144.5,71.3c0,0,8.1-2.7,0-23c0,0-2.4-18.8-20.9,7.2"/>
			<path class="st4" d="M139.1,66.8c0,0,5.9-3.7,0.9-12.8c0,0-1.6-4.8-2.3-3.4c-0.7,1.4-3,2.2-3,2.2l-0.6,3.6l-4.5-1.3"/>
			<path class="st4" d="M122.1,129.1c0,0,14.9-9.7,29.7,3.7"/>
			<path class="st4" d="M129.6,121.5c0,0,28-9.9,33.6,13.4"/>
			<path class="st4" d="M153.5,110.8c0,0,7-12.6-15.8-35.5c0,0,9.2,13.4,4.3,17.5l4.4,2.3c0,0,1.3,6.7-4.9,8.6l7.5-0.1L153.5,110.8z
				"/>
			<path class="st4" d="M118.7,73.1c0,0-8.8,2.5-10.6,10.2l-3.2-5.1l2.1-3.5l-3.5-4.5l3.7-3l3.4,3.9
				C110.7,71.1,112.6,73.4,118.7,73.1z"/>
			<path class="st4" d="M124.4,67.7c0,0-10.6,1.7-13.6-4.2C113.9,60.8,122.8,60.1,124.4,67.7z"/>
			<path class="st4" d="M148,113.8l-3.2-4.8h-5.4C139.4,108.9,143.4,116.6,148,113.8z"/>
			<path class="st4" d="M123.6,103.7c0,0-0.4-2.7,6-4.1c6.4-1.4,4.5-6.2,4.5-6.2s11.3,5.5,0.3,8S123.6,103.7,123.6,103.7z"/>
			<path class="st4" d="M136.9,88.7c0,0,1.6-13-15.1-9.6"/>
			<polyline class="st4" points="98.8,64.8 104.9,59.2 98.9,54.1 			"/>
		</g>
	</g>
	<g>
		<g>
			<g class="st1">
				<g class="st2">
					<rect class="st3" width="200" height="200"/>
				</g>
				<g class="st2">
					<rect class="st3" width="200" height="200"/>
				</g>
			</g>
			<circle class="st4" cx="100" cy="100" r="75"/>
			<path class="st4" d="M85.4,88.7"/>
			<path class="st4" d="M85.4,120"/>
			<path class="st4" d="M100,114.7l-13.1,1.1c-0.2,0-0.2,0.3,0,0.4c8.8,2,13.1,9.4,13.1,9.4c0,11.5-9.2,14.8-20.9,14.1
				c-11.6-0.7-15.9-5.2-18.2-11.9s-0.4-11.1,4.1-17.1"/>
			<path class="st4" d="M100,156c0,0-26.2,1.2-20.9-16.2"/>
			<path class="st4" d="M86.9,117L87.8,96c0.4-9.7-10.5-16.2-18.5-10.7c-0.3,0.2-0.5,0.4-0.7,0.5c0,0,4.9,12.1,11.8,8.6"/>
			<path class="st4" d="M70.6,138.1c0,0-10.7,1.2-13.4,6.7l-2.1-9.5c0,0-6.5,0.4-6.9,6.7c0,0-13.1-7.6-2.8-25.1h-5.1
				c0,0-12.5-21,18.7-48.9c0,0,15.1-18.1,42.2-17.8"/>
			<path class="st4" d="M55.5,71.3c0,0-8.1-2.7,0-23c0,0,2.4-18.8,20.9,7.2"/>
			<path class="st4" d="M60.9,66.8c0,0-5.9-3.7-0.9-12.8c0,0,1.6-4.8,2.3-3.4c0.7,1.4,3,2.2,3,2.2l0.6,3.6l4.5-1.3"/>
			<path class="st4" d="M77.9,129.1c0,0-14.9-9.7-29.7,3.7"/>
			<path class="st4" d="M70.4,121.5c0,0-28-9.9-33.6,13.4"/>
			<path class="st4" d="M46.5,110.8c0,0-7-12.6,15.8-35.5c0,0-9.2,13.4-4.3,17.5l-4.4,2.3c0,0-1.3,6.7,4.9,8.6l-7.5-0.1L46.5,110.8z
				"/>
			<path class="st4" d="M81.3,73.1c0,0,8.8,2.5,10.6,10.2l3.2-5.1l-2.1-3.5l3.5-4.5l-3.7-3l-3.4,3.9C89.3,71.1,87.4,73.4,81.3,73.1z
				"/>
			<path class="st4" d="M75.6,67.7c0,0,10.6,1.7,13.6-4.2C86.1,60.8,77.2,60.1,75.6,67.7z"/>
			<path class="st4" d="M52,113.8l3.2-4.8h5.4C60.6,108.9,56.6,116.6,52,113.8z"/>
			<path class="st4" d="M76.4,103.7c0,0,0.4-2.7-6-4.1c-6.4-1.4-4.5-6.2-4.5-6.2s-11.3,5.5-0.3,8S76.4,103.7,76.4,103.7z"/>
			<path class="st4" d="M63.1,88.7c0,0-1.6-13,15.1-9.6"/>
			<polyline class="st4" points="101.2,64.8 95.1,59.2 101.1,54.1 			"/>
		</g>
	</g>
</g>
</svg>
